<svg
  xmlns="http://www.w3.org/2000/svg"
  viewBox="0 0 640 640"
  fill="currentColor"
>
  <path
    transform="translate(640 0) scale(-1 1)"
    d="M569 337C578.4 327.6 578.4 312.4 569 303.1L425 159C418.1 152.1 407.8 150.1 398.8 153.8C389.8 157.5 384 166.3 384 176V256H272C245.5 256 224 277.5 224 304V336C224 362.5 245.5 384 272 384H384V464C384 473.7 389.8 482.5 398.8 486.2C407.8 489.9 418.1 487.9 425 481L569 337ZM224 160C241.7 160 256 145.7 256 128C256 110.3 241.7 96 224 96H160C107 96 64 139 64 192V448C64 501 107 544 160 544H224C241.7 544 256 529.7 256 512C256 494.3 241.7 480 224 480H160C142.3 480 128 465.7 128 448V192C128 174.3 142.3 160 160 160H224Z"
  />
</svg>